<svg id="Layer_1" data-name="Layer 1" xmlns="http://www.w3.org/2000/svg" width="105.3mm"
    height="38.37mm" viewBox="0 0 298.49 108.76">
  <title>kohii</title>
  <path
      d="M286.14-1.71,256,40.72l35,39.62H270l-31.3-36.1v36.1H221.79V-1.71h16.88V38.61L266.45-1.71Z"
      transform="translate(-221.79 3.12)" style="fill: #231f20" />
  <path
      d="M331.21-3.12c24.62,0,44,17.58,44,42.43s-19.34,42.43-44,42.43-44-17.58-44-42.43S306.6-3.12,331.21-3.12Zm0,70.33c14.89,0,26.84-11.37,26.84-27.9s-12-27.9-26.84-27.9-26.84,11.37-26.84,27.9S316.33,67.21,331.21,67.21Z"
      transform="translate(-221.79 3.12)" style="fill: #eb1d25" />
  <path d="M391.09-1.71H408V34.86h29.3V-1.71h16.88V80.34H437.27V49.16H408V80.34H391.09Z"
      transform="translate(-221.79 3.12)" style="fill: #231f20" />
  <path d="M492.18-1.71V80.34H475.3V-1.71Z" transform="translate(-221.79 3.12)"
      style="fill: #231f20" />
  <path d="M520.28-1.71V80.34H503.4V-1.71Z" transform="translate(-221.79 3.12)"
      style="fill: #231f20" />
  <polygon points="127.31 42.43 100.49 58.11 100.49 26.75 127.31 42.43" style="fill: #231f20" />
  <g>
    <path
        d="M224.75,102.35v3.09H222.3V93.57h3.9c3,0,4.76,1.92,4.76,4.39s-1.8,4.39-4.76,4.39ZM226,95.61h-1.25v4.71H226a2.36,2.36,0,1,0,0-4.71Z"
        transform="translate(-221.79 3.12)" style="fill: #231f20" />
    <path d="M239.62,93.57h2.44v9.8h4.76v2.07h-7.21Z" transform="translate(-221.79 3.12)"
        style="fill: #231f20" />
    <path d="M262.55,103.68h-5.12l-.68,1.76h-2.54L259,93.57h2l4.8,11.87h-2.54Zm-4.34-2h3.56L260,97Z"
        transform="translate(-221.79 3.12)" style="fill: #231f20" />
    <path d="M276,105.44v-3.63l-4.44-8.24h2.68l3,5.83,3-5.83h2.68l-4.44,8.24v3.63Z"
        transform="translate(-221.79 3.12)" style="fill: #231f20" />
    <path
        d="M291.43,93.57h4.12c2.68,0,4.17,1.46,4.17,3.39a2.7,2.7,0,0,1-1.51,2.48,2.82,2.82,0,0,1,2.05,2.7c0,2.15-1.36,3.31-4.49,3.31h-4.34Zm4,2h-1.59v3h1.59c1.32,0,1.81-.56,1.81-1.51S296.79,95.61,295.47,95.61Zm-1.59,5v2.76H296c1.29,0,1.76-.51,1.76-1.37s-.47-1.39-1.76-1.39Z"
        transform="translate(-221.79 3.12)" style="fill: #231f20" />
    <path d="M316,103.68h-5.12l-.68,1.76h-2.54l4.8-11.87h2l4.8,11.87h-2.54Zm-4.34-2h3.56L313.42,97Z"
        transform="translate(-221.79 3.12)" style="fill: #231f20" />
    <path
        d="M332.66,93.37a7.78,7.78,0,0,1,3.27.64l-.75,1.93a5.76,5.76,0,0,0-2.48-.47,3.81,3.81,0,0,0-3.81,4,3.86,3.86,0,0,0,4,4,5.21,5.21,0,0,0,2.42-.51L336,105a7,7,0,0,1-3.22.66,6.14,6.14,0,1,1-.14-12.27Z"
        transform="translate(-221.79 3.12)" style="fill: #231f20" />
    <path d="M354.4,93.57,350,99.71l5.07,5.73h-3.05l-4.53-5.22v5.22h-2.44V93.57h2.44V99.4l4-5.83Z"
        transform="translate(-221.79 3.12)" style="fill: #231f20" />
    <path
        d="M378.26,102.42l-3.09-4.61-.51,7.63h-2.51l.95-11.87h1.8l4,6,4-6h1.8l.95,11.87h-2.51l-.51-7.63-3.09,4.61Z"
        transform="translate(-221.79 3.12)" style="fill: #231f20" />
    <path
        d="M401.9,103.68h-5.12l-.68,1.76h-2.54l4.8-11.87h2l4.8,11.87h-2.54Zm-4.34-2h3.56L399.34,97Z"
        transform="translate(-221.79 3.12)" style="fill: #231f20" />
    <path
        d="M417.4,105.44h-4V93.57h4c3.85,0,6.44,2.17,6.44,5.93S421.25,105.44,417.4,105.44Zm0-9.8h-1.54v7.73h1.54a3.87,3.87,0,1,0,0-7.73Z"
        transform="translate(-221.79 3.12)" style="fill: #231f20" />
    <path d="M432.67,93.57H440v2.07h-4.85v3.19h4.07v2.07h-4.07v2.48h5v2.07h-7.44Z"
        transform="translate(-221.79 3.12)" style="fill: #231f20" />
    <path d="M458.6,93.57h7.29v2.07H461v3.19h4.07v2.07H461v2.48h5v2.07H458.6Z"
        transform="translate(-221.79 3.12)" style="fill: #231f20" />
    <path
        d="M482.18,103.68h-5.12l-.68,1.76h-2.54l4.8-11.87h2l4.8,11.87h-2.54Zm-4.34-2h3.56L479.62,97Z"
        transform="translate(-221.79 3.12)" style="fill: #231f20" />
    <path
        d="M493.3,96.59c0-1.92,1.36-3.22,3.81-3.22a6.42,6.42,0,0,1,3.19.83l-.75,1.93a4.11,4.11,0,0,0-2.2-.66c-1.07,0-1.58.39-1.58,1s.44,1.06,2.05,1.8c2.08.95,3.07,2,3.07,3.78,0,2.19-1.49,3.59-4.29,3.59a7.09,7.09,0,0,1-3.56-1l.75-2a5,5,0,0,0,2.71.83c1.19,0,1.92-.47,1.92-1.3s-.62-1.36-2.08-2C494,99.22,493.3,98.12,493.3,96.59Z"
        transform="translate(-221.79 3.12)" style="fill: #231f20" />
    <path d="M513,105.44v-3.63l-4.44-8.24h2.68l3,5.83,3-5.83h2.68l-4.44,8.24v3.63Z"
        transform="translate(-221.79 3.12)" style="fill: #231f20" />
  </g>
</svg>
